<svg width="40" height="40" viewBox="0 0 40 40" fill="none" xmlns="http://www.w3.org/2000/svg">
<path d="M40 20C40 31.0457 31.0457 40 20 40C8.9543 40 0 31.0457 0 20C0 8.9543 8.9543 0 20 0C31.0457 0 40 8.9543 40 20Z" fill="#E1011C"/>
<path d="M8.4 28.4V11.2H11.6V17.6C14.6 15.2 18 15.6 19.2 18.8V28.4H16.4V19.6C14.8 17.2 12.2 18.4 11.6 20V28.4H8.4Z" fill="white"/>
<path d="M21.2 28.4V11.2H24.4V17.6C27.4 15.2 30.8 15.6 32 18.8V28.4H29.2V19.6C27.6 17.2 25 18.4 24.4 20V28.4H21.2Z" fill="white"/>
</svg>
