<svg width="30" height="30" viewBox="0 0 30 30" fill="none" xmlns="http://www.w3.org/2000/svg">
<path d="M30 15C30 23.2843 23.2843 30 15 30C6.71573 30 0 23.2843 0 15C0 6.71573 6.71573 0 15 0C23.2843 0 30 6.71573 30 15Z" fill="#E1011C"/>
<path d="M6.3 21.3V8.4H8.7V13.2C10.95 11.4 13.5 11.7 14.4 14.1V21.3H12.3V14.7C11.1 12.9 9.15 13.8 8.7 15V21.3H6.3Z" fill="white"/>
<path d="M15.9 21.3V8.4H18.3V13.2C20.55 11.4 23.1 11.7 24 14.1V21.3H21.9V14.7C20.7 12.9 18.75 13.8 18.3 15V21.3H15.9Z" fill="white"/>
</svg>
