<svg width="30" height="30" viewBox="0 0 30 30" fill="none" xmlns="http://www.w3.org/2000/svg">
<path d="M15 0C6.71566 0 0 6.71566 0 15C0 23.2843 6.71566 30 15 30C23.2843 30 30 23.2843 30 15C30 6.71566 23.2843 0 15 0Z" fill="#40B3E0"/>
<path d="M22.2988 8.62852L19.6196 22.1366C19.6196 22.1366 19.2449 23.0734 18.2145 22.6238L12.0319 17.8838L9.78378 16.7972L5.99933 15.5231C5.99933 15.5231 5.41855 15.3171 5.3623 14.8675C5.30605 14.4178 6.01808 14.1743 6.01808 14.1743L21.0621 8.27274C21.0621 8.27274 22.2987 7.72945 22.2987 8.62875" fill="white"/>
<path d="M11.5567 21.9847C11.5567 21.9847 11.3763 21.9679 11.1513 21.2558C10.9266 20.5439 9.78369 16.797 9.78369 16.797L18.8702 11.0266C18.8702 11.0266 19.3948 10.7081 19.3761 11.0266C19.3761 11.0266 19.4697 11.0829 19.1886 11.3452C18.9077 11.6075 12.0507 17.7712 12.0507 17.7712" fill="#D2E5F1"/>
<path d="M14.4025 19.701L11.9572 21.9306C11.9572 21.9306 11.7659 22.0757 11.5569 21.9847L12.0252 17.8433" fill="#B5CFE4"/>
</svg>
